HIERARCHY
ROOT Hips
{
 OFFSET 0.000000 0.000000 0.000000
 CHANNELS 6 Xposition Yposition Zposition Yrotation Xrotation Zrotation
 JOINT Chest
 {
  OFFSET 0.000000 9.585900 0.002600
  CHANNELS 3 Yrotation Xrotation Zrotation
  JOINT Chest2
  {
   OFFSET 0.000000 9.601200 -0.005300
   CHANNELS 3 Yrotation Xrotation Zrotation
   JOINT Chest3
   {
    OFFSET 0.000000 9.561800 0.000000
    CHANNELS 3 Yrotation Xrotation Zrotation
    JOINT Chest4
    {
     OFFSET 0.000000 9.552100 0.000000
     CHANNELS 3 Yrotation Xrotation Zrotation
     JOINT Neck
     {
      OFFSET 0.000000 14.453000 0.000000
      CHANNELS 3 Yrotation Xrotation Zrotation
      JOINT Head
      {
       OFFSET 0.000000 8.936500 -0.011300
       CHANNELS 3 Yrotation Xrotation Zrotation
       End Site
       {
        OFFSET 0.000000 17.073600 -0.006000
       }
      }
     }
     JOINT RightCollar
     {
      OFFSET -2.921100 9.558500 0.000000
      CHANNELS 3 Yrotation Xrotation Zrotation
      JOINT RightShoulder
      {
       OFFSET -13.519700 0.000000 0.000000
       CHANNELS 3 Yrotation Xrotation Zrotation
       JOINT RightElbow
       {
        OFFSET 0.000000 -29.696600 0.000000
        CHANNELS 3 Yrotation Xrotation Zrotation
        JOINT RightWrist
        {
         OFFSET 0.000000 -24.004700 0.000000
         CHANNELS 3 Yrotation Xrotation Zrotation
         End Site
         {
          OFFSET 0.000000 -17.728500 0.000000
         }
        }
       }
      }
     }
     JOINT LeftCollar
     {
      OFFSET 2.921100 9.558500 0.000000
      CHANNELS 3 Yrotation Xrotation Zrotation
      JOINT LeftShoulder
      {
       OFFSET 13.519700 0.000000 0.000000
       CHANNELS 3 Yrotation Xrotation Zrotation
       JOINT LeftElbow
       {
        OFFSET 0.000000 -29.696600 0.000000
        CHANNELS 3 Yrotation Xrotation Zrotation
        JOINT LeftWrist
        {
         OFFSET 0.000000 -24.004700 0.000000
         CHANNELS 3 Yrotation Xrotation Zrotation
         End Site
         {
          OFFSET 0.000000 -17.728500 0.000000
         }
        }
       }
      }
     }
    }
   }
  }
 }
 JOINT RightHip
 {
  OFFSET -7.771700 -0.012900 -0.001300
  CHANNELS 3 Yrotation Xrotation Zrotation
  JOINT RightKnee
  {
   OFFSET 0.000000 -40.869800 0.001200
   CHANNELS 3 Yrotation Xrotation Zrotation
   JOINT RightAnkle
   {
    OFFSET 0.000000 -39.717900 0.002100
    CHANNELS 3 Yrotation Xrotation Zrotation
    JOINT RightToe
    {
     OFFSET 0.000000 -4.965400 11.033500
     CHANNELS 3 Yrotation Xrotation Zrotation
     End Site
     {
      OFFSET 0.000000 -1.423100 5.872300
     }
    }
   }
  }
 }
 JOINT LeftHip
 {
  OFFSET 7.771700 -0.012900 -0.001300
  CHANNELS 3 Yrotation Xrotation Zrotation
  JOINT LeftKnee
  {
   OFFSET 0.000000 -40.869800 0.001200
   CHANNELS 3 Yrotation Xrotation Zrotation
   JOINT LeftAnkle
   {
    OFFSET 0.000000 -39.717900 0.002100
    CHANNELS 3 Yrotation Xrotation Zrotation
    JOINT LeftToe
    {
     OFFSET 0.000000 -4.965400 11.033500
     CHANNELS 3 Yrotation Xrotation Zrotation
     End Site
     {
      OFFSET 0.000000 -1.423100 5.872300
     }
    }
   }
  }
 }
}
MOTION
Frames: 16
Frame Time: 0.008333
-99.897809 58.220993 92.851126 -179.717035 -28.370019 -2.877748 1.903469 22.052504 2.097284 0.231491 3.025132 0.244345 0.331852 4.960859 0.382726 1.516622 18.675295 1.673102 -0.081029 16.079323 -0.049443 -0.164116 -5.923273 -0.039058 4.119549 -1.757611 -0.335724 15.846615 -19.540112 -22.321239 131.090978 -64.766677 -96.059068 18.778303 -18.814204 -48.909737 -7.881859 -2.147369 -3.390994 6.665123 -19.566652 -1.556395 -117.774919 -43.960861 115.222533 -11.746953 -8.370398 32.577239 4.746845 -45.647600 -1.538741 -16.394070 69.075239 -23.952397 8.489636 15.281262 13.480211 -0.066077 -10.417279 0.723622 -6.419490 -44.249482 2.289841 27.823481 67.027332 24.425019 -18.159839 3.973715 0.000369 0.068924 0.054427 0.019149
-99.904122 58.223044 92.849702 -179.718573 -28.360240 -2.874556 1.895726 22.049461 2.088031 0.182848 3.074835 0.224134 0.374700 4.921071 0.399658 1.502289 18.695689 1.680050 -0.065742 16.048000 -0.057235 -0.161201 -5.961304 -0.041786 4.125778 -1.761031 -0.330183 15.825352 -19.559179 -22.300466 131.128235 -64.745549 -96.076477 18.761190 -18.803034 -48.940881 -7.892009 -2.153490 -3.389657 6.584208 -19.574677 -1.595337 -117.888410 -44.000241 115.289689 -11.751985 -8.365922 32.569773 4.863170 -45.744628 -1.654514 -16.497201 69.026575 -24.022809 8.598862 15.488010 13.532314 -0.059683 -9.889111 0.742827 -6.419669 -44.259836 2.255630 27.877215 67.009804 24.491918 -18.144546 3.983829 0.010252 0.047659 0.045609 0.005655
-99.906177 58.224054 92.851542 -179.728968 -28.331799 -2.895329 1.886281 22.046261 2.090213 0.183048 3.076362 0.229636 0.352933 4.948162 0.395457 1.521440 18.677777 1.692810 -0.079700 16.026485 -0.050836 -0.120976 -5.986314 -0.075085 4.129333 -1.764348 -0.324347 15.830107 -19.574833 -22.301256 131.155276 -64.723924 -96.085746 18.739771 -18.782922 -48.979107 -7.879717 -2.175204 -3.395907 6.482960 -19.567260 -1.625130 -117.990671 -44.041177 115.343092 -11.758364 -8.358405 32.560328 4.955894 -45.862967 -1.734824 -16.548792 68.982087 -24.026459 8.692332 15.719184 13.560827 -0.051674 -9.363541 0.767212 -6.440534 -44.286052 2.286524 27.860013 66.999076 24.486582 -18.155136 3.997066 0.006326 0.048259 0.040394 0.007005
-99.907417 58.225126 92.853492 -179.738599 -28.303576 -2.924446 1.854063 22.066517 2.089022 0.214165 3.048228 0.241896 0.337956 4.965912 0.395484 1.523233 18.676581 1.700733 -0.073803 15.998291 -0.056611 -0.107004 -6.041066 -0.086322 4.133495 -1.767675 -0.327129 15.828295 -19.589112 -22.288376 131.166500 -64.717149 -96.109802 18.738052 -18.789885 -48.970343 -7.865629 -2.198424 -3.403888 6.385353 -19.559057 -1.655591 -118.083941 -44.088195 115.385672 -11.767582 -8.351678 32.551838 5.020226 -45.979864 -1.793966 -16.548970 68.940332 -23.977299 8.777040 15.978791 13.571098 -0.041738 -8.870487 0.795148 -6.469648 -44.312346 2.324787 27.831886 66.993990 24.480379 -18.139046 4.005694 -0.006749 0.051260 0.036194 0.007691
-99.912932 58.226358 92.854184 -179.761073 -28.283252 -2.924398 1.849825 22.068558 2.083322 0.233511 3.032115 0.247007 0.315680 4.988767 0.395505 1.517316 18.683133 1.708625 -0.068156 15.970790 -0.063599 -0.104033 -6.136627 -0.093890 4.144156 -1.769628 -0.334424 15.839247 -19.609049 -22.291736 131.152046 -64.731255 -96.128106 18.751154 -18.813417 -48.939551 -7.870424 -2.205136 -3.407510 6.315380 -19.566070 -1.697154 -118.168489 -44.137314 115.419314 -11.777311 -8.347988 32.548082 5.090493 -46.083716 -1.867278 -16.503116 68.899293 -23.889190 8.856923 16.274938 13.560970 -0.028598 -8.441513 0.831365 -6.452078 -44.337583 2.298946 27.893298 66.981918 24.570871 -18.099887 4.023188 0.002971 0.010554 0.015885 -0.008398
-99.916390 58.227816 92.853829 -179.775314 -28.268084 -2.941826 1.849526 22.069822 2.096475 0.229055 3.039722 0.245575 0.318177 4.986089 0.400018 1.502131 18.697361 1.718212 -0.062021 15.943245 -0.071700 -0.087052 -6.176820 -0.112896 4.155761 -1.770456 -0.341270 15.853753 -19.627900 -22.297694 131.103167 -64.795750 -96.163977 18.750206 -18.822880 -48.907286 -7.894446 -2.188264 -3.405428 6.276160 -19.594780 -1.752103 -118.247256 -44.183993 115.450425 -11.783692 -8.345382 32.547748 5.109472 -46.178793 -1.899606 -16.436304 68.857361 -23.789149 8.937216 16.570025 13.537429 -0.019707 -8.061067 0.870766 -6.452735 -44.353288 2.308923 27.921526 66.977369 24.617756 -18.104217 4.021392 0.004486 0.012647 0.014676 -0.014356
-99.918184 58.228115 92.854922 -179.793112 -28.240835 -2.967129 1.869402 22.046784 2.127772 0.205622 3.059697 0.243707 0.317565 4.991246 0.403645 1.501607 18.694786 1.721689 -0.063564 15.923885 -0.073946 -0.071023 -6.227905 -0.130817 4.156402 -1.766393 -0.343140 15.807824 -19.624282 -22.243130 131.142588 -64.768549 -96.197891 18.734732 -18.813309 -48.892818 -7.878752 -2.205308 -3.414580 6.193869 -19.578052 -1.788141 -118.324815 -44.225900 115.480986 -11.785153 -8.342282 32.547334 5.097283 -46.279992 -1.901638 -16.383437 68.811482 -23.710973 9.026150 16.862261 13.508048 -0.013791 -7.744416 0.909450 -6.456321 -44.381943 2.330847 27.951383 66.975491 24.668700 -18.090501 4.017053 0.009887 0.007715 0.014860 -0.017426
-99.924041 58.229810 92.852224 -179.794818 -28.235003 -2.973802 1.848291 22.067794 2.124664 0.175137 3.087567 0.242773 0.334500 4.974549 0.405274 1.497393 18.692158 1.724731 -0.044227 15.894757 -0.089386 -0.071915 -6.283428 -0.134106 4.167894 -1.774047 -0.346816 15.779859 -19.623012 -22.212179 131.162303 -64.768280 -96.226357 18.727557 -18.814881 -48.870725 -7.853231 -2.229487 -3.426749 6.118860 -19.560113 -1.824842 -118.401668 -44.263367 115.507960 -11.785632 -8.335077 32.549887 5.074988 -46.349260 -1.922316 -16.353674 68.764512 -23.664715 9.119841 17.144253 13.472264 -0.007670 -7.495348 0.949188 -6.439756 -44.390703 2.309703 27.960698 66.975721 24.707858 -18.085916 4.013209 0.006344 0.015609 0.013065 -0.012239
-99.927745 58.230721 92.850679 -179.805262 -28.218949 -2.985719 1.833671 22.076201 2.127961 0.190431 3.075359 0.244870 0.326590 4.982474 0.406422 1.469843 18.711908 1.733202 -0.036752 15.865019 -0.097952 -0.052047 -6.328263 -0.154426 4.184836 -1.787909 -0.356725 15.768118 -19.625274 -22.193393 131.164058 -64.782539 -96.244674 18.720635 -18.815645 -48.851748 -7.834730 -2.250813 -3.434648 6.066749 -19.552260 -1.871195 -118.475251 -44.297116 115.530179 -11.786673 -8.321640 32.553514 5.028574 -46.424010 -1.910065 -16.322655 68.718054 -23.629432 9.207389 17.413289 13.431071 -0.002346 -7.308619 0.989631 -6.424891 -44.407951 2.304883 27.968908 66.974862 24.740833 -18.074571 4.009626 0.008384 0.012935 0.012792 -0.014564
-99.924987 58.232029 92.848924 -179.805967 -28.201927 -3.036426 1.832507 22.079035 2.171129 0.177610 3.083011 0.243933 0.330532 4.979175 0.408459 1.480899 18.702366 1.734600 -0.051631 15.858633 -0.089638 -0.033686 -6.368625 -0.172946 4.169243 -1.779606 -0.348477 15.785471 -19.634443 -22.197431 131.137450 -64.817055 -96.252194 18.710864 -18.813640 -48.830143 -7.860245 -2.242205 -3.419188 6.041015 -19.550047 -1.929189 -118.545915 -44.325501 115.548565 -11.786032 -8.305311 32.550620 4.951688 -46.478149 -1.840449 -16.308590 68.653344 -23.608479 9.266497 17.640424 13.383657 0.013343 -7.146823 1.034239 -6.452194 -44.423880 2.349201 27.993682 66.980204 24.791759 -18.055771 3.988062 0.008371 0.000984 0.024054 -0.015017
-99.926669 58.233638 92.846190 -179.829821 -28.189438 -3.044632 1.808620 22.103332 2.163073 0.188208 3.073210 0.246732 0.329126 4.981523 0.410528 1.503541 18.688606 1.736457 -0.061103 15.849283 -0.085589 -0.020399 -6.403518 -0.184510 4.148285 -1.769260 -0.338648 15.809898 -19.645059 -22.203958 131.105727 -64.851398 -96.253316 18.700624 -18.810974 -48.805173 -7.847844 -2.254984 -3.424597 5.981870 -19.525735 -1.963126 -118.617171 -44.349068 115.566124 -11.785139 -8.287688 32.542087 4.861537 -46.548456 -1.778689 -16.235033 68.617075 -23.575052 9.347933 17.894064 13.351136 0.018248 -7.077861 1.071470 -6.432777 -44.438922 2.355208 28.008184 66.989305 24.829879 -18.048593 3.979019 0.008073 0.000249 0.022049 -0.012266
-99.926923 58.236781 92.841061 -179.857163 -28.191494 -3.054875 1.835067 22.108393 2.184378 0.159340 3.086987 0.240153 0.328742 4.982880 0.411583 1.505931 18.692338 1.746208 -0.052619 15.830136 -0.095995 -0.012132 -6.435616 -0.188256 4.143160 -1.768958 -0.347638 15.805352 -19.642039 -22.177031 131.093596 -64.860548 -96.252755 18.693352 -18.811270 -48.784429 -7.835419 -2.268253 -3.428985 5.952159 -19.508293 -2.005332 -118.690596 -44.369632 115.584740 -11.784914 -8.268334 32.531292 4.754760 -46.599878 -1.693297 -16.196437 68.568780 -23.590942 9.445301 18.146025 13.328393 0.022916 -7.056617 1.105316 -6.424151 -44.437722 2.378067 28.049170 67.008073 24.888073 -18.064079 3.951283 0.003198 0.009662 0.024002 -0.012705
-99.927237 58.239600 92.837003 -179.879323 -28.184430 -3.062923 1.819458 22.119453 2.178177 0.181086 3.077444 0.245627 0.320226 4.987439 0.410309 1.492309 18.702521 1.750336 -0.023625 15.809196 -0.108668 -0.016146 -6.465546 -0.180936 4.143915 -1.769739 -0.353911 15.799514 -19.640036 -22.151856 131.116717 -64.846604 -96.262611 18.665443 -18.790418 -48.777293 -7.816757 -2.279301 -3.433751 5.950778 -19.506769 -2.027723 -118.781275 -44.413167 115.599713 -11.785899 -8.249254 32.518141 4.665340 -46.653127 -1.623787 -16.219345 68.505384 -23.660710 9.558202 18.389258 13.316388 0.028315 -7.132898 1.134720 -6.402953 -44.447513 2.381581 28.068163 67.017819 24.932440 -18.067626 3.943228 0.002766 0.005337 0.018410 -0.016063
-99.924263 58.242951 92.832923 -179.904390 -28.177144 -3.086106 1.819569 22.126161 2.193086 0.198264 3.070054 0.250350 0.302824 4.997585 0.405760 1.469705 18.715723 1.750929 0.005338 15.780036 -0.114015 -0.001336 -6.495175 -0.186512 4.166013 -1.776532 -0.356411 15.794860 -19.637125 -22.133656 131.128583 -64.834816 -96.266744 18.637438 -18.772973 -48.765930 -7.782685 -2.298494 -3.437218 5.950580 -19.503907 -2.049993 -118.865243 -44.450988 115.616644 -11.834284 -8.215934 32.534799 4.606976 -46.690928 -1.554967 -16.307714 68.419623 -23.769689 9.677295 18.610738 13.311689 0.032965 -7.100649 1.162912 -6.407329 -44.457226 2.414759 28.091743 67.029738 24.976681 -18.055818 3.936323 0.000233 -0.013415 0.012651 -0.017223
-99.923804 58.245498 92.830708 -179.948607 -28.157260 -3.083319 1.801207 22.136340 2.168842 0.221817 3.057101 0.258688 0.299884 5.003395 0.402677 1.475856 18.716820 1.751325 -0.003040 15.759371 -0.107409 0.033120 -6.529164 -0.198984 4.171401 -1.776681 -0.351958 15.796606 -19.636219 -22.116035 131.094301 -64.850677 -96.254029 18.630597 -18.773788 -48.736935 -7.785015 -2.304002 -3.437070 5.937393 -19.496478 -2.072070 -118.919283 -44.464639 115.637466 -11.878644 -8.186564 32.548530 4.536922 -46.774577 -1.502663 -16.342523 68.373145 -23.850408 9.818390 18.847414 13.316596 0.029588 -7.099065 1.182372 -6.402465 -44.478328 2.446146 28.110381 67.041790 25.001001 -18.052910 3.926949 -0.007995 0.003477 0.012941 -0.011720
-99.926092 58.247625 92.829594 -179.992111 -28.129601 -3.063797 1.830055 22.111364 2.163221 0.199390 3.071035 0.250480 0.301575 5.003754 0.400431 1.495374 18.708087 1.755387 -0.004991 15.750424 -0.105756 0.035033 -6.562382 -0.192640 4.151099 -1.763669 -0.345858 15.760726 -19.607043 -22.066175 131.090376 -64.860233 -96.271267 18.656130 -18.792957 -48.692413 -7.792147 -2.301044 -3.433929 5.916124 -19.486187 -2.093093 -118.968472 -44.478648 115.649248 -11.820953 -8.183011 32.485522 4.500816 -46.865324 -1.496553 -16.376356 68.328922 -23.914557 9.972542 19.086104 13.330760 0.015903 -7.124306 1.194303 -6.394602 -44.507220 2.463531 28.126294 67.053158 25.013639 -18.051459 3.928138 -0.012682 0.004755 0.001141 -0.012364
